<svg xmlns="http://www.w3.org/2000/svg" viewBox="0 0 512 180"><style>@keyframes stroke{0%{stroke-dashoffset:15em}}#logo-linea{stroke-dasharray:15em;animation:2s .5s both stroke}@keyframes show-left{0%{transform:translateX(3rem);opacity:0}}#logo-lopez{animation:.5s 1s both show-left}#logo-del{animation:.5s 1.25s both show-left}#logo-amo{animation:.5s 1.5s both show-left}</style><g id="logo-lopez" fill="#1d1d1b"><path d="M20,28H48.8v1.2h-8V89.1H55.2c7.6,0,16.2-4.9,19.2-18.5h1.1V90.3H20V89.1h8.1V29.2H20Z"/><path d="M120.1,71.5c0,10.9-9.3,20.1-21.4,20.1S77.4,82.4,77.4,71.5s9.3-19.9,21.3-19.9S120.1,60.7,120.1,71.5Zm-11.8,0c0-9.4-.5-18.7-9.6-18.7s-9.5,9.3-9.5,18.7.4,18.8,9.5,18.8S108.3,81,108.3,71.5Zm-5.6-42.9c.6-1.2,1.4-2.7,3.7-2.7s2.8.9,2.8,2.6a3.6,3.6,0,0,1-.7,2.4L96.1,44H95Z"/><path d="M124.2,54h-5.8V52.8h16.3v6.5h.2c1.8-5.1,5.3-7.7,10.3-7.7,13.5,0,19.1,11.8,19.1,19.9,0,10.4-7.7,20.1-19.1,20.1-5.3,0-8.5-3.4-10.1-7.6h-.2v29.6h6v1.3H118.4v-1.3h5.8Zm21,36.3c6.5,0,7.3-7.3,7.3-18.7,0-14.1-2-18.8-8-18.8-8.6,0-9.6,11-9.6,18.8S135.4,90.3,145.2,90.3Z"/><path d="M179.4,68.4v3.9c0,8.3.7,18,11.1,18a13.3,13.3,0,0,0,13-10.1l1.2.4c-1.2,4.3-5.4,11-15.5,11-12.2,0-21.6-7.7-21.6-20.2,0-10,9-19.8,20.4-19.8,8,0,17.2,4.9,17.2,16.8Zm14-1.3V61.3c0-2.5,0-8.5-5.7-8.5-7.9,0-8.1,8.4-8.3,14.3Z"/><path d="M228.6,54h-7.8c-6.3,0-8.5,3.1-11.2,9.2h-1l1.3-10.4h31.3L220,89.1h10.7c7.3,0,9.1-5.5,10.8-10.8h1l-1,12H207.3Z"/></g><g id="logo-del" fill="#fff"><path d="M269.3,83.6a18.8,18.8,0,0,0-1.2,5,1.3,1.3,0,0,0,1.4,1.4c2.8,0,4.5-3.8,4.9-4.7l.7.4c-.7,1.6-2.8,5.3-6.8,5.3-2.3,0-3.5-1.1-3.5-3.2a10.5,10.5,0,0,1,.6-3h-.1c-1.9,2.4-5.1,6.2-9.7,6.2-2.9,0-5.7-2.1-5.7-6.8,0-8.6,11.1-17.4,16.6-17.4,2.2,0,3.9,1.3,3.9,3.3h.1l6.9-19.5h-4.7l.2-.7h8.5Zm-.4-9.1a12.3,12.3,0,0,0,1-3.7,3,3,0,0,0-3.1-3.2c-7.1,0-13.2,12.9-13.2,18.9,0,2.2.8,3.8,2.9,3.8,4.1,0,8.9-6,9.6-8Z"/><path d="M294.5,85.1c-.7,1-3.3,5.9-9.3,5.9s-8.3-4.5-8.3-8c0-7.1,7.5-16.2,14.9-16.2,2.8,0,5.9,1.2,5.9,4,0,5.8-10.3,7.1-12.5,7.1l-3.2-.2a19.7,19.7,0,0,0-1.4,6.9c0,3.8,2.2,5.7,5.3,5.7s6.9-4.1,8-5.6Zm-2.8-17.5c-4.6,0-8.2,5.6-9.5,9.3l2.7.2c5.1,0,9.5-3.3,9.5-7A2.4,2.4,0,0,0,291.7,67.6Z"/><path d="M315.1,49.9,302.5,85.5a10.7,10.7,0,0,0-.8,3.2c0,.9.4,1.6,1.5,1.6s4.5-3.6,5-4.8l.6.3c-.5,1.1-2.3,5.2-6.6,5.2-2.3,0-3.8-.9-3.8-3.2a14.4,14.4,0,0,1,.9-4l11.9-33.2h-4.7l.2-.7Z"/></g><g id="logo-amo" fill="#1d1d1b"><path d="M313.5,89.1H321l26.1-63.6h2.3L377,89.1h7.5v1.2H355.1V89.1h8.2L353.1,65.6h-21l-9.7,23.5h7.8v1.2H313.5Zm28.8-48.6-9.8,23.9h20.2Z"/><path d="M383.7,52.8H400V59h.1a13.4,13.4,0,0,1,12.2-7c8.2,0,10.5,3.8,12.3,7a13.2,13.2,0,0,1,11.8-7c13.3,0,13.3,9,13.3,13.2V89.1h5.8v1.2H433.8V89.1H439V62c0-4.9-1.7-7.6-5.9-7.6a8.9,8.9,0,0,0-8.2,8.9V89.1h5.2v1.2H409V89.1h5.2V61.3c0-5.1-2.6-6.9-5.3-6.9a8.2,8.2,0,0,0-6.1,3c-2,2.3-2.7,4.6-2.7,10.3V89.1h5.2v1.2H383.7V89.1h5.7V54h-5.7Z"/><path d="M496,71.5c0,10.9-9.3,20.1-21.4,20.1s-21.3-9.2-21.3-20.1,9.3-19.9,21.3-19.9S496,60.7,496,71.5Zm-11.8,0c0-9.4-.5-18.7-9.6-18.7s-9.5,9.3-9.5,18.7.4,18.8,9.5,18.8S484.2,81,484.2,71.5Z"/></g><path id="logo-linea" d="M156.4,120c52.3,52.3,146.9,52,198.8,0" fill="none" stroke="#fff" stroke-linecap="round" stroke-miterlimit="10" stroke-width="11"/></svg>